<?xml version="1.0" encoding="UTF-8"?>
<svg width="100pt" height="100pt" version="1.1" viewBox="0 0 100 100" xmlns="http://www.w3.org/2000/svg">
 <g>
  <path d="m63.41 39.773c4.5469 0.23047 6.4531 2.0117 6.4531 2.0117s-3.1445-3.3477-7.9141-3.1953c-5.1797 0.16406-6.7969 1.582-6.7969 1.582 0.003906 0.11328-0.070313 1.6289-0.070313 1.6289 0.003907 0.003907 3.7852-2.2578 8.3281-2.0273z"/>
  <path d="m37.949 39.688c-4.4766 0.17578-6.3398 1.9258-6.3398 1.9258s3.0625-3.2852 7.7656-3.082c5.1016 0.21875 6.7109 1.6445 6.7109 1.6445-0.003907 0.10938 0.085937 1.6172 0.085937 1.6172-0.003906-0.003907-3.7461-2.2852-8.2227-2.1055z"/>
  <path d="m46.312 61.465s0.15234 0.054687 0.41016 0.16797c0.12891 0.058594 0.28516 0.12891 0.46484 0.1875 0.18359 0.058594 0.36719 0.14453 0.58984 0.20703 0.22656 0.058594 0.45312 0.14453 0.70703 0.20312 0.25391 0.054687 0.51562 0.12891 0.79297 0.16797 0.27344 0.0625 0.5625 0.085937 0.85156 0.11328 0.28906 0.050781 0.58594 0.03125 0.87891 0.042969 0.29297-0.007813 0.58594-0.007813 0.87109-0.039063 0.31641-0.039063 0.58594-0.066406 0.86719-0.10938 0.56641-0.085938 1.0859-0.19531 1.5273-0.30469 0.21875-0.066406 0.41797-0.12891 0.59375-0.17969 0.16797-0.078125 0.3125-0.14453 0.43359-0.19922 0.21875-0.16406 0.34375-0.26172 0.34375-0.26172s-0.058593 0.14062-0.21094 0.40625c-0.097656 0.10547-0.21875 0.23437-0.375 0.38281-0.16406 0.11328-0.35156 0.26172-0.56641 0.38281-0.43359 0.24219-0.96875 0.47266-1.5625 0.63281-0.29688 0.074219-0.62891 0.17188-0.92578 0.20703-0.32812 0.050782-0.66797 0.066406-1.0039 0.085938-0.33594-0.027344-0.67578-0.023438-1-0.085938-0.32812-0.039062-0.64062-0.125-0.9375-0.21875-0.30469-0.070312-0.57422-0.21484-0.83594-0.32422-0.26562-0.10547-0.48828-0.26563-0.69922-0.38672-0.21484-0.12109-0.39062-0.28125-0.54688-0.40234-0.16406-0.11719-0.27734-0.24609-0.375-0.34766-0.1875-0.20312-0.29297-0.32812-0.29297-0.32812z"/>
  <path d="m36.5 48.316c-1.4453 0.92969-4 1.4727-4 1.4727 3.9492 1.1523 4.2773 0.20703 7.6602 0.019532 3.3828-0.1875 5.1133 1.2422 5.1133 1.2422-1.6484-3.9609-6.7734-4.0234-8.7734-2.7344z"/>
  <path d="m59.84 49.809c3.3828 0.1875 3.7109 1.1367 7.6602-0.019532 0 0-2.5547-0.54297-4-1.4727-2-1.2891-7.375-1.2305-8.6953 2.7383 0 0 1.6523-1.4336 5.0352-1.2461z"/>
  <path d="m50.238 10.078c-31.387-0.007813-29.828 34.141-29.828 34.141 0.21094 28.84 21.949 31.289 21.949 31.289-2.7227-1.3594-4.8008-3.4492-6.3906-5.9492 2.0312 1.5 4.3203 2.7305 6.3906 3.8398 0.28906 0.14844 0.57031 0.30078 0.83984 0.44922 0 3.4609-0.10938 5.5703-0.60938 9.3398-0.96875 0.039062-3.3281 0.23047-5.3008 1.2188l-0.48047 0.25 0.28125 0.46094c0.14844 0.25 2.5703 4.1094 6.4609 6.8203-0.19922 2.25-0.23828 4.3711 0.12891 5.5391 0.23047 0.75 0.67969 1.25 1.3398 1.4883 0.30078 0.10938 0.63281 0.14844 0.97266 0.14844 1.8281 0 4-1.3594 4.0508-1.3984 0.37891-0.14062 0.69922-0.76172 0.91016-2.4805 0.32031 2.2383 0.69922 2.3711 0.89844 2.4414 0.10938 0.070313 2.2891 1.4414 4.1328 1.4414 0.32812 0 0.66016-0.039063 0.96094-0.14844 0.66016-0.23828 1.1094-0.73828 1.3516-1.4883 0.32812-1.0586 0.32812-2.9102 0.19141-4.9297 4.4609-2.6914 6.5391-7.1211 6.5703-7.1797l0.19922-0.42188-0.41016-0.23047c-2.1094-1.1797-4.8281-1.7383-5.8398-1.9219-0.28906-3.6484-0.30078-5.3008-0.30078-9.1211 1.7891-0.94922 3.6602-2.1719 5.6211-3.6914 0.62109-0.48047 1.4102-1.0703 2.1797-1.6406 0.25-0.19141 0.5-0.37109 0.75-0.55859-1.7109 4.1797-4.1992 7.1484-7.6914 7.7188 0 0 19.281 0.53125 19.18-27.102-0.007813 0.007812 3.2422-38.324-28.508-38.324zm-11.977 74.992c2.1797-0.91016 4.7305-0.87891 4.7617-0.87891h0.44141l0.058594-0.42969c0.53125-3.8203 0.66016-5.9609 0.67969-9.3711 0.67969 0.37109 1.3789 0.67188 2.0781 0.91016-0.64844 3.8008-1.5391 8.2188-1.5508 8.2891-0.039063 0.25-0.69922 3.6797-1.0703 7.1719-2.7383-2.0508-4.6719-4.6406-5.3984-5.6914zm11.449 11.98c-0.78906 0.5-3.1211 1.6914-4.4297 1.2109-0.42969-0.16016-0.73047-0.48828-0.89062-1.0117-0.32031-1-0.30078-2.8398-0.14062-4.8516 0.03125-0.37891 0.070312-0.76172 0.10156-1.1484 0.38281-3.6602 1.1094-7.4492 1.1211-7.5117 0.0625-0.28125 0.89844-4.5 1.5391-8.2109 0.050781-0.33984 0.10938-0.67188 0.16016-0.98828 0.28906-1.7383 0.51172-3.2617 0.53125-4.0586 0.070313-2.1797 0.62109-3.9609 1.3594-4.4219 0.13281-0.089844 0.26953-0.12109 0.41016-0.12109 0.10156 0 0.19922 0.019531 0.30078 0.050781 0.19922 0.25 0.35156 1.4805 0.44922 3.1914-0.17188-0.058594-0.35156-0.10156-0.55078-0.070313-0.92969 0.16016-1.9297 1.5391-1.9297 4.9414 0 0.17188-0.011719 0.39062-0.03125 0.62891-0.019532 0.28906-0.050782 0.62891-0.10156 1-0.44922 3.8203-1.9609 11.359-1.9883 11.449l0.73828 0.14062c0.078125-0.35938 1.5195-7.5781 1.9883-11.441 0.039063-0.37109 0.078125-0.69922 0.10156-1 0.03125-0.30078 0.039062-0.57031 0.039062-0.78125 0-3.1406 0.85156-4.1211 1.3086-4.1992 0.19141-0.03125 0.25 0.10156 0.28125 0.17969 0.058594 0.16016 0.10156 0.35938 0.12891 0.57812 0 0.17188 0.011719 0.35156 0.011719 0.51953-0.050781 0.69922-0.039062 1.6016 0.03125 2.6719 0 0.12109 0 0.23828 0.011719 0.35156-0.019531 0.30078-0.039063 0.57812-0.058594 0.83984-0.03125 0.35156-0.0625 0.64844-0.078125 0.87891-0.070312-0.011719-0.12891-0.039063-0.19922-0.039063h-0.019531c-0.17969 0-0.37109 0.039063-0.55078 0.12891-0.46875 0.21094-0.85938 0.69922-0.87891 1.3711-0.12891 3.4609-0.5 9.7812-0.5 9.8516l0.75 0.039062c0-0.058594 0.37109-6.3984 0.5-9.8594 0.019532-0.51953 0.44922-0.80078 0.67969-0.78125 0.39844 0.011719 0.4375 0.53906 0.4375 0.76172v0.60938c-0.019531 4.7695 0.039062 8.3711 0.14062 11.102-0.011719 1.8789-0.0625 3.3516-0.13281 4.4805-0.027343 0.37109-0.050781 0.69922-0.078124 1-0.14453 1.6797-0.35156 2.3477-0.5625 2.5195zm7.8594 0.19922c-0.16016 0.51953-0.44922 0.85156-0.89062 1.0117-1.3008 0.48047-3.6406-0.71094-4.4805-1.2383-0.12109-0.089844-0.35938-0.53906-0.58984-2.4492-0.03125-0.28906-0.070313-0.62891-0.10156-1-0.10156-1.0898-0.19922-2.5195-0.26953-4.3984 0.019531-2.5391-0.011719-5.7891-0.10938-9.9688-0.019531-0.92969-0.039062-1.5898-0.039062-1.8516v-0.011719c0-0.46875 0.17969-0.78125 0.46094-0.78125h0.011719c0.28125 0 0.69141 0.30078 0.73828 1 0.21094 3.6211 0.89844 9.3906 0.91016 9.4492l0.73828-0.089844c0-0.058594-0.69141-5.8086-0.91016-9.3984-0.050781-0.87891-0.5-1.4219-1.0312-1.6211-0.16016-0.058594-0.32031-0.089844-0.48047-0.089844-0.12109 0-0.23828 0.039062-0.35156 0.089844-0.027343-0.30859-0.058593-0.60938-0.089843-0.92188 0.019531-1.8789 0-3.5-0.058594-4.8281 0.019531-0.10938 0.050781-0.19141 0.089844-0.23047 0.17969-0.03125 0.30078-0.039063 0.46094 0.078125 0.35156 0.28125 0.85156 1.2109 1.1992 4.1016 0.019531 0.19141 0.050781 0.41016 0.10156 0.66016 0.039063 0.28906 0.10156 0.62109 0.17188 0.98828 0.67969 3.6602 2.2891 10.43 2.3711 10.77l0.73047-0.17188c-0.019532-0.089844-1.6914-7.1016-2.3711-10.77-0.070312-0.35938-0.12891-0.69141-0.17969-0.98047-0.027343-0.21875-0.058593-0.42188-0.078124-0.58984-0.30859-2.6016-0.77734-4.0586-1.4883-4.6016-0.41016-0.32031-0.80078-0.26172-1.0195-0.23828-0.011719 0.011719-0.019531 0.019531-0.027344 0.019531 0.027344-1.5898 0.10156-2.7383 0.21875-2.9805 0.26953-0.46094 0.46094-0.41016 0.51953-0.39062 0.75 0.19141 1.8906 2.6719 1.9727 4.75 0.027343 0.76953 0.27734 2.1992 0.60938 3.8516 0.070312 0.30859 0.12891 0.62891 0.19922 0.96094 0.80078 3.7383 1.9219 8.0898 1.9883 8.3516 0.019531 0.070312 0.82031 4.3008 1.1719 8.1406 0.039062 0.37109 0.070312 0.73828 0.089843 1.1016 0.11328 1.7773 0.10156 3.3672-0.1875 4.2773zm6.3594-11.879c-0.58984 1.0781-2.3906 4.0195-5.5508 6.0781-0.35938-3.7188-1.1094-7.6016-1.1602-7.8789-0.011719-0.070312-1.1797-4.6016-2-8.4102 0.8125-0.26953 1.6406-0.60156 2.4805-1 0 3.7188 0.019531 5.3789 0.32812 9.1094l0.027344 0.39844 0.39844 0.058593c0.035156 0.003907 3.0977 0.45313 5.4766 1.6445zm3.9492-19.312c-0.53906 0.42188-1.25 0.94922-1.9805 1.4883-0.76953 0.57031-1.5703 1.1602-2.1914 1.6484-3.1406 2.4219-6.0117 4.0781-8.6914 4.9883-0.32031-1.5781-0.55859-2.9297-0.57812-3.6484-0.070312-1.9609-1.1602-5.1094-2.5312-5.4492-0.3125-0.078126-0.87891-0.078126-1.3594 0.75-0.011719 0.019531-0.019531 0.070312-0.03125 0.10156-0.11719-0.32812-0.23828-0.53125-0.39062-0.58984-0.51953-0.23047-1.0312-0.19922-1.4688 0.070313-1.1602 0.73047-1.6484 3.0781-1.7109 5.0312-0.03125 0.75-0.23047 2.1914-0.5 3.8516-0.62891-0.21875-1.25-0.5-1.8594-0.83984-0.55078-0.30078-1.1406-0.60938-1.7617-0.94141-2.6094-1.3984-5.5703-2.9805-7.8398-5.0508l-0.25781-0.35547c-5.6289-11.16-3.3125-27.574-3.3125-27.574s5.0508-6.1406 26.641-4.1406c0 0 2.4219-2.1914 3.1406-6.3711 0 0 1.1289 3.3398 0.83984 7.1094 0 0 4.7109 0.46875 7.8984 3.1406 0.78516 8.8438 0.59766 18.984-2.0547 26.781z"/>
 </g>
</svg>
